<?xml version="1.0" encoding="UTF-8"?><svg id="Layer_1" xmlns="http://www.w3.org/2000/svg" 
viewBox="0 0 165 165"><defs><style>.cls-1{fill:#f1bf2b;}.cls-2{fill:#3f4040;}.cls-3{fill:#a41e22;}</style>
</defs><g><g>
<path class="cls-1" d="M62.59,99.92c0-.09,.07-.16,.16-.16h7.02c4.41,0,6.7,3.08,6.7,6.33,0,2.76-1.64,5.27-4.89,5.94-.12,.02-.17,.16-.09,.25l5.63,6.92v.34h-3.82s-.09-.02-.12-.06l-6.56-8.41s-.03-.06-.03-.1v-1.4c0-.09,.07-.16,.16-.16h2.84c2.19,0,3.91-2.02,3.4-4.14-.36-1.47-1.59-2.36-3.32-2.36h-3.6c-.09,0-.16,.07-.16,.16v16.31c0,.09-.07,.16-.16,.16h-2.99c-.09,0-.16-.07-.16-.16v-19.47Z"/><path class="cls-1" d="M76.57,112.06c0-4.55,3.14-7.77,7.52-7.77,1.96,0,3.67,.65,4.95,1.78,.1,.09,.26,.03,.26-.11l.04-1.23c0-.08,.07-.15,.16-.15h2.66c.09,0,.16,.07,.16,.16v14.67c0,.09-.07,.16-.16,.16h-2.66c-.08,0-.15-.07-.16-.15l-.04-1.26c0-.13-.16-.2-.26-.11-1.28,1.15-2.99,1.8-4.95,1.8-4.44,0-7.52-3.28-7.52-7.77Zm7.91,4.83c2.77,0,4.75-1.98,4.75-4.83s-1.98-4.83-4.75-4.83-4.72,1.98-4.72,4.83,1.98,4.83,4.72,4.83Z"/><path class="cls-1" d="M93.12,104.57h2.77c.09,0,.16,.07,.16,.15l.02,1.31c0,.14,.17,.2,.27,.11,1.21-1.17,2.8-1.83,4.8-1.83,3.9,0,6.08,2.46,6.08,6.78v8.29c0,.09-.07,.16-.16,.16h-2.82c-.09,0-.16-.07-.16-.16v-8.07c0-2.74-1.24-4.16-3.65-4.16-2.63,0-4.32,1.64-4.32,4.16v8.07c0,.09-.07,.16-.16,.16h-2.82c-.09,0-.16-.07-.16-.16v-14.67c0-.09,.07-.16,.16-.16Z"/><path class="cls-1" d="M108.06,99.76h2.82c.09,0,.16,.07,.16,.16v19.47c0,.09-.07,.16-.16,.16h-2.82c-.09,0-.16-.07-.16-.16v-19.47c0-.09,.07-.16,.16-.16Zm3.32,12.61v-.63s.01-.07,.03-.09l5.29-7.02s.08-.06,.12-.06h3.54v.23l-5.52,7.05c-.05,.06-.04,.14,0,.2l6,7.28v.23h-3.71s-.09-.02-.12-.06l-5.6-7.02s-.03-.06-.03-.1Z"/><path class="cls-1" d="M119.36,112.06c0-4.52,3.28-7.77,7.77-7.77,4.82,0,8.13,3.47,7.78,8.67,0,.08-.08,.15-.16,.15h-11.98c-.1,0-.18,.09-.16,.19,.46,2.21,2.18,3.65,4.51,3.65,1.74,0,3.22-.73,3.94-1.91,.03-.05,.08-.07,.13-.07h3.08c.11,0,.19,.11,.15,.21-1.1,2.87-3.88,4.65-7.3,4.65-4.49,0-7.77-3.25-7.77-7.77Zm12.14-1.38c.1,0,.18-.1,.15-.2-.59-1.95-2.25-3.3-4.52-3.3s-3.85,1.3-4.41,3.31c-.03,.1,.05,.2,.15,.2h8.63Z"/><path class="cls-1" d="M135.72,104.57h2.74c.08,0,.15,.07,.16,.15l.04,1.32c0,.14,.18,.2,.28,.09,1.02-1.17,2.4-1.79,4.03-1.79,.53,0,1.1,.07,1.68,.2,.07,.02,.12,.08,.12,.15v2.54c0,.1-.09,.17-.19,.15-.47-.09-.95-.16-1.4-.16-2.63,0-4.49,1.72-4.49,4.38v7.79c0,.09-.07,.16-.16,.16h-2.82c-.09,0-.16-.07-.16-.16v-14.67c0-.09,.07-.16,.16-.16Z"/></g><g><path class="cls-2" d="M101.43,122.84h1.35c.78,0,1.4,.72,1.4,1.6s-.62,1.61-1.4,1.61h-1.35v-3.21Zm.55,2.75h.72c.53,0,.94-.52,.94-1.14s-.41-1.14-.94-1.14h-.72v2.28Z"/><path class="cls-2" d="M104.73,126.05v-3.22h.54v3.22h-.54Z"/><path class="cls-2" d="M105.83,124.45c0-.92,.75-1.61,1.61-1.61,.41,0,.98,.18,1.36,.76l-.44,.28c-.21-.39-.58-.57-.92-.57-.57,0-1.06,.49-1.06,1.14s.49,1.14,1.06,1.14c.36,0,.68-.2,.83-.47v-.45h-1v-.44h1.54v1.05c-.3,.49-.83,.78-1.38,.78-.86,0-1.61-.69-1.61-1.6Z"/><path class="cls-2" d="M109.45,126.05v-3.22h.54v3.22h-.54Z"/><path class="cls-2" d="M110.49,123.31v-.47h2.7v.47h-1.08v2.75h-.55v-2.75h-1.07Z"/><path class="cls-2" d="M114.15,122.84h.61l1.24,3.21h-.59l-.22-.6h-1.46l-.22,.6h-.59l1.24-3.21Zm-.28,2.18h1.17l-.59-1.57-.58,1.57Z"/><path class="cls-2" d="M118.58,125.59v.47h-2.19v-3.22h.55v2.75h1.65Z"/><path class="cls-2" d="M121.27,125.59v.47h-2.19v-3.22h.55v2.75h1.65Z"/><path class="cls-2" d="M121.11,122.84h.59l.81,1.51,.8-1.51h.59l-1.13,2.03v1.19h-.55v-1.19l-1.13-2.03Z"/><path class="cls-2" d="M125.64,122.84h2.49v.47h-1.95v.92h1.74v.44h-1.74v1.39h-.55v-3.21Z"/><path class="cls-2" d="M128.64,126.05v-3.22h.54v3.22h-.54Z"/><path class="cls-2" d="M129.88,126.05v-3.21h1.52c.61,0,1.05,.37,1.05,.97,0,.51-.36,.86-.81,.91l.81,1.33h-.63l-.79-1.3h-.6v1.3h-.55Zm.55-1.74h.98c.28,0,.5-.23,.5-.5s-.22-.5-.5-.5h-.98v1.01Z"/><path class="cls-2" d="M133.4,125.1c0,.25,.28,.49,.7,.49,.36,0,.71-.2,.71-.49,0-.78-1.9-.24-1.9-1.39,0-.5,.55-.87,1.19-.87s1.2,.39,1.2,.9h-.55c0-.24-.29-.43-.65-.43-.34,0-.65,.17-.65,.43,0,.74,1.9,.21,1.9,1.4,0,.57-.64,.92-1.25,.92-.69,0-1.25-.42-1.25-.96h.55Z"/><path class="cls-2" d="M135.6,123.31v-.47h2.7v.47h-1.08v2.75h-.55v-2.75h-1.07Z"/></g><path class="cls-2" d="M19.78,99.92c0-.09,.07-.16,.16-.16h7.53c3.25,0,5.51,2.06,5.51,5.17,0,1.62-.59,2.97-1.65,3.93-.08,.07-.07,.19,.02,.25,1.56,.94,2.5,2.69,2.5,4.73,0,3.45-2.4,5.71-5.94,5.71h-7.98c-.09,0-.16-.07-.16-.16v-19.47Zm7.43,7.87c1.61,0,2.43-.96,2.43-2.49s-.96-2.43-2.52-2.43h-3.94c-.09,0-.16,.07-.16,.16v4.61c0,.09,.07,.16,.16,.16h4.03Zm.42,8.62c1.68,0,2.76-.91,2.85-2.6s-1.3-3.03-2.95-3.03h-4.35c-.09,0-.16,.07-.16,.16v5.31c0,.09,.07,.16,.16,.16h4.45Z"/><path class="cls-2" d="M34.62,104.57h2.82c.09,0,.16,.07,.16,.16v14.67c0,.09-.07,.16-.16,.16h-2.82c-.09,0-.16-.07-.16-.16v-14.67c0-.09,.07-.16,.16-.16Z"/><path class="cls-2" d="M38.38,112.06c0-4.52,3.11-7.77,7.49-7.77,1.93,0,3.61,.62,4.89,1.72,.1,.09,.26,.02,.26-.11v-5.97c0-.09,.07-.16,.16-.16h2.82c.09,0,.16,.07,.16,.16v19.47c0,.09-.07,.16-.16,.16h-2.66c-.08,0-.15-.07-.16-.15l-.04-1.28c0-.13-.16-.2-.26-.11-1.28,1.16-3.02,1.83-5.01,1.83-4.41,0-7.49-3.31-7.49-7.77Zm7.91,4.83c2.8,0,4.78-1.98,4.78-4.83s-1.98-4.83-4.78-4.83-4.75,1.98-4.75,4.83,1.98,4.83,4.75,4.83Z"/><g><path class="cls-2" d="M140.92,98.13h-.72v-.39h1.91v.39h-.73v2.14h-.46v-2.14Z"/><path class="cls-2" d="M144.72,99.25c-.01-.33-.03-.72-.03-1.06h-.01c-.08,.31-.19,.65-.3,.97l-.37,1.1h-.36l-.34-1.08c-.1-.32-.19-.67-.26-.98h0c-.01,.33-.03,.73-.04,1.08l-.06,1.02h-.43l.17-2.53h.61l.33,1.02c.09,.3,.17,.6,.23,.88h.01c.07-.27,.15-.59,.25-.88l.35-1.01h.6l.15,2.53h-.45l-.05-1.03Z"/></g></g><path class="cls-1" d="M50.47,89.86s-.09-.01-.13-.04l-9.41-6.02c-.12-.07-.15-.23-.08-.34,.07-.12,.23-.15,.34-.08l2.14,1.36,7.28,4.67c.12,.07,.15,.23,.07,.34-.05,.07-.13,.11-.21,.11Z"/><g><path class="cls-1" d="M40.88,83.77c-1.76-1.13-3.53-2.26-5.29-3.39-.09-.06-.1-.19,0-.26,20-14.55,40.89-26.59,60.93-41.14,.1-.07,.24,0,.25,.12,.18,4.63,.37,9.25,.55,13.88,0,.06-.03,.12-.09,.15-19.16,8.82-38.31,18.13-56.17,30.64-.05,.04-.12,.04-.17,0Z"/><path class="cls-1" d="M48.11,88.39c-1.76-1.13-3.53-2.26-5.29-3.39-.09-.06-.1-.2,0-.26,17.14-11.83,35.67-20.29,54.47-27.37,.1-.04,.21,.03,.21,.14,.19,4.63,.37,9.27,.56,13.9,0,.08-.06,.15-.14,.16-17.89,1.31-34.66,7.02-49.63,16.81-.05,.03-.12,.03-.17,0Z"/><path class="cls-1" d="M55.34,93.02c-1.76-1.13-3.52-2.26-5.29-3.38-.1-.06-.1-.2,0-.27,14.29-9.12,30.48-13.98,48.03-13.58,.08,0,.15,.07,.15,.15,.18,4.63,.37,9.26,.55,13.89,0,.11-.11,.19-.21,.15-16.61-6.14-30.99-4.02-43.08,3.04-.05,.03-.11,.03-.16,0Z"/></g><path class="cls-3" d="M33.73,102.3l2.21-2.48c.06-.07,.17-.07,.23,0l2.17,2.45c.09,.1,.02,.26-.12,.26l-4.38,.04c-.14,0-.21-.16-.12-.26Z"/>

</svg>